<svg width="162" height="62" viewBox="0 0 162 62" fill="none" xmlns="http://www.w3.org/2000/svg">
<rect x="0.5" y="0.5" width="161" height="61" rx="15.5" stroke="white"/>
<path d="M45.4573 38.3193C44.7213 39.9488 44.3693 40.6774 43.4241 42.1174C42.1035 44.1285 40.2389 46.6381 37.9336 46.6553C35.8832 46.6725 35.3539 45.3174 32.5712 45.3396C29.7884 45.3531 29.2087 46.6799 27.1558 46.659C24.8506 46.6381 23.0856 44.3771 21.7638 42.3697C18.0678 36.739 17.6776 30.1396 19.9619 26.6282C21.5779 24.1384 24.1355 22.6762 26.5367 22.6762C28.9822 22.6762 30.5195 24.0202 32.5416 24.0202C34.5035 24.0202 35.6986 22.6725 38.5269 22.6725C40.6659 22.6725 42.9281 23.8381 44.5441 25.8491C39.2567 28.7464 40.1158 36.2984 45.4573 38.3193ZM36.3804 20.4251C37.4093 19.1045 38.1896 17.2411 37.9066 15.3408C36.2278 15.4553 34.2647 16.5273 33.1176 17.9156C32.0789 19.1796 31.2173 21.0577 31.5533 22.8744C33.3847 22.9334 35.2801 21.8417 36.3804 20.4251Z" fill="white"/>
<g filter="url(#filter0_b_4924_5691)">
<path d="M57.134 23V13.34H60.62C61.3387 13.34 61.9313 13.4567 62.398 13.69C62.874 13.914 63.2473 14.2313 63.518 14.642C63.798 15.0527 63.994 15.5473 64.106 16.126C64.2273 16.6953 64.288 17.33 64.288 18.03C64.288 18.73 64.232 19.3833 64.12 19.99C64.008 20.5873 63.812 21.1147 63.532 21.572C63.2613 22.02 62.888 22.37 62.412 22.622C61.9453 22.874 61.3527 23 60.634 23H57.134ZM58.366 21.922H60.62C61.1147 21.922 61.516 21.8193 61.824 21.614C62.132 21.3993 62.37 21.11 62.538 20.746C62.7153 20.382 62.8367 19.9713 62.902 19.514C62.9767 19.0473 63.014 18.5527 63.014 18.03C63.014 17.5167 62.9767 17.0407 62.902 16.602C62.8367 16.1633 62.7153 15.7807 62.538 15.454C62.37 15.1273 62.1273 14.8753 61.81 14.698C61.502 14.5113 61.1053 14.418 60.62 14.418H58.366V21.922ZM68.7334 23.14C67.9494 23.14 67.3334 23.0047 66.8854 22.734C66.4468 22.4633 66.1388 22.0573 65.9614 21.516C65.7841 20.9653 65.6954 20.2653 65.6954 19.416C65.6954 18.6133 65.7934 17.9507 65.9894 17.428C66.1854 16.896 66.5074 16.504 66.9554 16.252C67.4034 15.9907 67.9961 15.86 68.7334 15.86C69.4801 15.86 70.0774 15.9907 70.5254 16.252C70.9734 16.504 71.2954 16.896 71.4914 17.428C71.6874 17.9507 71.7854 18.6133 71.7854 19.416C71.7854 20.2653 71.6921 20.9653 71.5054 21.516C71.3281 22.0573 71.0201 22.4633 70.5814 22.734C70.1428 23.0047 69.5268 23.14 68.7334 23.14ZM68.7334 22.118C69.2561 22.118 69.6481 22.0293 69.9094 21.852C70.1708 21.6653 70.3434 21.3713 70.4274 20.97C70.5114 20.5687 70.5534 20.0507 70.5534 19.416C70.5534 18.7907 70.4974 18.2913 70.3854 17.918C70.2828 17.5447 70.1008 17.2787 69.8394 17.12C69.5781 16.9613 69.2094 16.882 68.7334 16.882C68.2668 16.882 67.8981 16.9613 67.6274 17.12C67.3661 17.2787 67.1794 17.5447 67.0674 17.918C66.9648 18.2913 66.9134 18.7907 66.9134 19.416C66.9134 20.0507 66.9554 20.5687 67.0394 20.97C67.1234 21.3713 67.2961 21.6653 67.5574 21.852C67.8188 22.0293 68.2108 22.118 68.7334 22.118ZM74.4909 23L72.8809 16H74.0989L75.4009 21.978H75.6389L77.2069 16.14H78.4249L80.0069 21.978H80.2449L81.5469 16H82.7509L81.1409 23H79.1949L77.8089 17.708L76.4229 23H74.4909ZM84.146 23V16H85.322V16.476C85.4807 16.3827 85.6767 16.2893 85.91 16.196C86.1527 16.1027 86.4047 16.0233 86.666 15.958C86.9367 15.8927 87.1933 15.86 87.436 15.86C88.08 15.86 88.5747 15.9767 88.92 16.21C89.2653 16.434 89.5033 16.798 89.634 17.302C89.7647 17.806 89.83 18.4733 89.83 19.304V23H88.64V19.346C88.64 18.758 88.6027 18.2867 88.528 17.932C88.4627 17.5773 88.3273 17.3207 88.122 17.162C87.926 17.0033 87.618 16.924 87.198 16.924C86.974 16.924 86.7407 16.952 86.498 17.008C86.2647 17.0547 86.0453 17.1153 85.84 17.19C85.6347 17.2647 85.462 17.3393 85.322 17.414V23H84.146ZM91.7766 23V12.976H92.9666V23H91.7766ZM97.7315 23.14C96.9475 23.14 96.3315 23.0047 95.8835 22.734C95.4448 22.4633 95.1368 22.0573 94.9595 21.516C94.7822 20.9653 94.6935 20.2653 94.6935 19.416C94.6935 18.6133 94.7915 17.9507 94.9875 17.428C95.1835 16.896 95.5055 16.504 95.9535 16.252C96.4015 15.9907 96.9942 15.86 97.7315 15.86C98.4782 15.86 99.0755 15.9907 99.5235 16.252C99.9715 16.504 100.293 16.896 100.489 17.428C100.685 17.9507 100.783 18.6133 100.783 19.416C100.783 20.2653 100.69 20.9653 100.503 21.516C100.326 22.0573 100.018 22.4633 99.5795 22.734C99.1408 23.0047 98.5248 23.14 97.7315 23.14ZM97.7315 22.118C98.2542 22.118 98.6462 22.0293 98.9075 21.852C99.1688 21.6653 99.3415 21.3713 99.4255 20.97C99.5095 20.5687 99.5515 20.0507 99.5515 19.416C99.5515 18.7907 99.4955 18.2913 99.3835 17.918C99.2808 17.5447 99.0988 17.2787 98.8375 17.12C98.5762 16.9613 98.2075 16.882 97.7315 16.882C97.2648 16.882 96.8962 16.9613 96.6255 17.12C96.3642 17.2787 96.1775 17.5447 96.0655 17.918C95.9628 18.2913 95.9115 18.7907 95.9115 19.416C95.9115 20.0507 95.9535 20.5687 96.0375 20.97C96.1215 21.3713 96.2942 21.6653 96.5555 21.852C96.8168 22.0293 97.2088 22.118 97.7315 22.118ZM104.007 23.14C103.344 23.14 102.84 22.958 102.495 22.594C102.159 22.23 101.991 21.6933 101.991 20.984C101.991 20.5173 102.07 20.1393 102.229 19.85C102.397 19.5607 102.644 19.3413 102.971 19.192C103.307 19.0427 103.713 18.9493 104.189 18.912L106.289 18.702V18.128C106.289 17.6707 106.186 17.3487 105.981 17.162C105.776 16.9753 105.477 16.882 105.085 16.882C104.842 16.882 104.558 16.8913 104.231 16.91C103.914 16.9287 103.592 16.952 103.265 16.98C102.948 17.008 102.668 17.036 102.425 17.064L102.369 16.168C102.593 16.1213 102.864 16.0747 103.181 16.028C103.508 15.9813 103.844 15.944 104.189 15.916C104.544 15.8787 104.866 15.86 105.155 15.86C105.696 15.86 106.14 15.9393 106.485 16.098C106.83 16.2567 107.082 16.504 107.241 16.84C107.409 17.1667 107.493 17.5913 107.493 18.114V21.614C107.512 21.81 107.591 21.9547 107.731 22.048C107.871 22.132 108.048 22.188 108.263 22.216L108.221 23.14C108.016 23.14 107.824 23.126 107.647 23.098C107.47 23.0793 107.311 23.0513 107.171 23.014C107.031 22.9673 106.905 22.9113 106.793 22.846C106.681 22.7713 106.574 22.6873 106.471 22.594C106.294 22.6687 106.07 22.748 105.799 22.832C105.528 22.916 105.239 22.986 104.931 23.042C104.623 23.1073 104.315 23.14 104.007 23.14ZM104.217 22.16C104.46 22.16 104.712 22.1413 104.973 22.104C105.234 22.0573 105.482 22.0013 105.715 21.936C105.948 21.8707 106.14 21.81 106.289 21.754V19.57L104.343 19.752C103.942 19.7893 103.652 19.9107 103.475 20.116C103.298 20.312 103.209 20.592 103.209 20.956C103.209 21.3293 103.293 21.6233 103.461 21.838C103.638 22.0527 103.89 22.16 104.217 22.16ZM111.733 23.14C111.444 23.14 111.173 23.1073 110.921 23.042C110.669 22.986 110.436 22.8833 110.221 22.734C110.016 22.5753 109.834 22.3607 109.675 22.09C109.517 21.8193 109.395 21.4787 109.311 21.068C109.227 20.648 109.185 20.144 109.185 19.556C109.185 18.7253 109.283 18.0393 109.479 17.498C109.675 16.9473 109.988 16.5367 110.417 16.266C110.856 15.9953 111.43 15.86 112.139 15.86C112.401 15.86 112.695 15.8787 113.021 15.916C113.357 15.9533 113.619 15.9907 113.805 16.028V12.976H114.995V23H113.819V22.552C113.67 22.6267 113.479 22.7107 113.245 22.804C113.012 22.8973 112.765 22.9767 112.503 23.042C112.242 23.1073 111.985 23.14 111.733 23.14ZM111.915 22.076C112.149 22.076 112.382 22.0527 112.615 22.006C112.858 21.95 113.082 21.8847 113.287 21.81C113.493 21.7353 113.665 21.6653 113.805 21.6V17.036C113.693 17.0173 113.544 16.9987 113.357 16.98C113.171 16.952 112.975 16.9333 112.769 16.924C112.573 16.9053 112.391 16.896 112.223 16.896C111.766 16.896 111.407 16.994 111.145 17.19C110.884 17.386 110.697 17.6847 110.585 18.086C110.473 18.478 110.417 18.968 110.417 19.556C110.417 20.088 110.455 20.522 110.529 20.858C110.613 21.1847 110.725 21.4367 110.865 21.614C111.005 21.7913 111.164 21.9127 111.341 21.978C111.528 22.0433 111.719 22.076 111.915 22.076ZM120.035 23V16H121.211V23H120.035ZM120.035 14.516V13.214H121.211V14.516H120.035ZM125.476 23.154C124.99 23.154 124.603 23.0793 124.314 22.93C124.024 22.7807 123.814 22.524 123.684 22.16C123.562 21.7867 123.502 21.264 123.502 20.592V17.022H122.536V16H123.502V13.9H124.692V16H126.834V17.022H124.692V20.256C124.692 20.732 124.71 21.1053 124.748 21.376C124.794 21.6373 124.883 21.824 125.014 21.936C125.154 22.0387 125.368 22.09 125.658 22.09C125.751 22.09 125.868 22.0853 126.008 22.076C126.157 22.0667 126.306 22.0573 126.456 22.048C126.614 22.0293 126.75 22.0153 126.862 22.006L126.932 23C126.726 23.028 126.479 23.0607 126.19 23.098C125.91 23.1353 125.672 23.154 125.476 23.154ZM133.894 23.14C133.11 23.14 132.494 23.0047 132.046 22.734C131.607 22.4633 131.299 22.0573 131.122 21.516C130.944 20.9653 130.856 20.2653 130.856 19.416C130.856 18.6133 130.954 17.9507 131.15 17.428C131.346 16.896 131.668 16.504 132.116 16.252C132.564 15.9907 133.156 15.86 133.894 15.86C134.64 15.86 135.238 15.9907 135.686 16.252C136.134 16.504 136.456 16.896 136.652 17.428C136.848 17.9507 136.946 18.6133 136.946 19.416C136.946 20.2653 136.852 20.9653 136.666 21.516C136.488 22.0573 136.18 22.4633 135.742 22.734C135.303 23.0047 134.687 23.14 133.894 23.14ZM133.894 22.118C134.416 22.118 134.808 22.0293 135.07 21.852C135.331 21.6653 135.504 21.3713 135.588 20.97C135.672 20.5687 135.714 20.0507 135.714 19.416C135.714 18.7907 135.658 18.2913 135.546 17.918C135.443 17.5447 135.261 17.2787 135 17.12C134.738 16.9613 134.37 16.882 133.894 16.882C133.427 16.882 133.058 16.9613 132.788 17.12C132.526 17.2787 132.34 17.5447 132.228 17.918C132.125 18.2913 132.074 18.7907 132.074 19.416C132.074 20.0507 132.116 20.5687 132.2 20.97C132.284 21.3713 132.456 21.6653 132.718 21.852C132.979 22.0293 133.371 22.118 133.894 22.118ZM138.601 23V16H139.777V16.476C139.936 16.3827 140.132 16.2893 140.365 16.196C140.608 16.1027 140.86 16.0233 141.121 15.958C141.392 15.8927 141.648 15.86 141.891 15.86C142.535 15.86 143.03 15.9767 143.375 16.21C143.72 16.434 143.958 16.798 144.089 17.302C144.22 17.806 144.285 18.4733 144.285 19.304V23H143.095V19.346C143.095 18.758 143.058 18.2867 142.983 17.932C142.918 17.5773 142.782 17.3207 142.577 17.162C142.381 17.0033 142.073 16.924 141.653 16.924C141.429 16.924 141.196 16.952 140.953 17.008C140.72 17.0547 140.5 17.1153 140.295 17.19C140.09 17.2647 139.917 17.3393 139.777 17.414V23H138.601Z" fill="white"/>
</g>
<g filter="url(#filter1_b_4924_5691)">
<path d="M56.216 47L59.348 34.706H63.686L66.8 47H64.316L63.632 44.516H59.33L58.682 47H56.216ZM59.726 42.518H63.272L61.886 36.722H61.13L59.726 42.518ZM68.0115 50.798V37.964H70.3875L70.4055 38.54C70.5735 38.432 70.7835 38.318 71.0355 38.198C71.2995 38.078 71.5815 37.976 71.8815 37.892C72.1815 37.808 72.4755 37.766 72.7635 37.766C73.9755 37.766 74.8455 38.156 75.3735 38.936C75.9015 39.704 76.1655 40.874 76.1655 42.446C76.1655 43.574 76.0335 44.486 75.7695 45.182C75.5055 45.878 75.0795 46.388 74.4915 46.712C73.9155 47.036 73.1535 47.198 72.2055 47.198C71.9055 47.198 71.5815 47.174 71.2335 47.126C70.8855 47.078 70.6095 47.03 70.4055 46.982V50.798H68.0115ZM71.8275 45.2C72.3075 45.2 72.6855 45.098 72.9615 44.894C73.2375 44.69 73.4295 44.384 73.5375 43.976C73.6575 43.556 73.7175 43.028 73.7175 42.392C73.7175 41.408 73.5795 40.73 73.3035 40.358C73.0395 39.974 72.6555 39.782 72.1515 39.782C71.9595 39.782 71.7555 39.806 71.5395 39.854C71.3235 39.902 71.1135 39.962 70.9095 40.034C70.7055 40.106 70.5375 40.178 70.4055 40.25V45.074C70.5495 45.086 70.7535 45.11 71.0175 45.146C71.2935 45.182 71.5635 45.2 71.8275 45.2ZM77.8025 50.798V37.964H80.1785L80.1965 38.54C80.3645 38.432 80.5745 38.318 80.8265 38.198C81.0905 38.078 81.3725 37.976 81.6725 37.892C81.9725 37.808 82.2665 37.766 82.5545 37.766C83.7665 37.766 84.6365 38.156 85.1645 38.936C85.6925 39.704 85.9565 40.874 85.9565 42.446C85.9565 43.574 85.8245 44.486 85.5605 45.182C85.2965 45.878 84.8705 46.388 84.2825 46.712C83.7065 47.036 82.9445 47.198 81.9965 47.198C81.6965 47.198 81.3725 47.174 81.0245 47.126C80.6765 47.078 80.4005 47.03 80.1965 46.982V50.798H77.8025ZM81.6185 45.2C82.0985 45.2 82.4765 45.098 82.7525 44.894C83.0285 44.69 83.2205 44.384 83.3285 43.976C83.4485 43.556 83.5085 43.028 83.5085 42.392C83.5085 41.408 83.3705 40.73 83.0945 40.358C82.8305 39.974 82.4465 39.782 81.9425 39.782C81.7505 39.782 81.5465 39.806 81.3305 39.854C81.1145 39.902 80.9045 39.962 80.7005 40.034C80.4965 40.106 80.3285 40.178 80.1965 40.25V45.074C80.3405 45.086 80.5445 45.11 80.8085 45.146C81.0845 45.182 81.3545 45.2 81.6185 45.2ZM95.6354 47.198C95.1794 47.198 94.6814 47.168 94.1414 47.108C93.6014 47.06 93.0734 47 92.5574 46.928C92.0534 46.844 91.6214 46.772 91.2614 46.712L91.4234 44.75C91.7954 44.798 92.2274 44.852 92.7194 44.912C93.2114 44.96 93.6974 45.002 94.1774 45.038C94.6694 45.074 95.0954 45.092 95.4554 45.092C96.1394 45.092 96.6374 44.96 96.9494 44.696C97.2614 44.42 97.4174 43.994 97.4174 43.418C97.4174 43.106 97.3514 42.86 97.2194 42.68C97.0994 42.488 96.8774 42.338 96.5534 42.23C96.2294 42.11 95.7794 41.996 95.2034 41.888C94.2434 41.708 93.4634 41.486 92.8634 41.222C92.2754 40.958 91.8434 40.586 91.5674 40.106C91.3034 39.626 91.1714 38.984 91.1714 38.18C91.1714 37.244 91.3454 36.512 91.6934 35.984C92.0414 35.444 92.5394 35.06 93.1874 34.832C93.8354 34.604 94.5974 34.49 95.4734 34.49C95.8694 34.49 96.3194 34.514 96.8234 34.562C97.3394 34.598 97.8434 34.646 98.3354 34.706C98.8394 34.766 99.2654 34.832 99.6134 34.904L99.5054 36.884C99.1454 36.836 98.7254 36.794 98.2454 36.758C97.7774 36.71 97.3094 36.668 96.8414 36.632C96.3854 36.596 95.9954 36.578 95.6714 36.578C94.9874 36.578 94.4834 36.686 94.1594 36.902C93.8354 37.118 93.6734 37.466 93.6734 37.946C93.6734 38.306 93.7454 38.582 93.8894 38.774C94.0334 38.966 94.2734 39.122 94.6094 39.242C94.9574 39.362 95.4314 39.488 96.0314 39.62C96.7394 39.776 97.3394 39.944 97.8314 40.124C98.3354 40.304 98.7374 40.52 99.0374 40.772C99.3494 41.024 99.5774 41.348 99.7214 41.744C99.8654 42.14 99.9374 42.638 99.9374 43.238C99.9374 44.198 99.7634 44.972 99.4154 45.56C99.0794 46.136 98.5874 46.556 97.9394 46.82C97.3034 47.072 96.5354 47.198 95.6354 47.198ZM104.683 47.216C104.023 47.216 103.489 47.12 103.081 46.928C102.673 46.736 102.379 46.406 102.199 45.938C102.031 45.458 101.947 44.792 101.947 43.94V39.962H100.885V37.964H101.947V35.57H104.341V37.964H106.645V39.962H104.341V43.31C104.341 43.778 104.359 44.144 104.395 44.408C104.443 44.672 104.539 44.858 104.683 44.966C104.827 45.074 105.049 45.128 105.349 45.128C105.433 45.128 105.559 45.122 105.727 45.11C105.895 45.098 106.063 45.086 106.231 45.074C106.399 45.062 106.537 45.05 106.645 45.038L106.717 46.964C106.429 47.012 106.081 47.066 105.673 47.126C105.277 47.186 104.947 47.216 104.683 47.216ZM111.872 47.198C110.852 47.198 110.03 47.03 109.406 46.694C108.794 46.358 108.35 45.842 108.074 45.146C107.798 44.438 107.66 43.526 107.66 42.41C107.66 41.33 107.804 40.454 108.092 39.782C108.38 39.098 108.836 38.594 109.46 38.27C110.084 37.934 110.888 37.766 111.872 37.766C112.868 37.766 113.672 37.934 114.284 38.27C114.908 38.594 115.364 39.098 115.652 39.782C115.952 40.454 116.102 41.33 116.102 42.41C116.102 43.526 115.964 44.438 115.688 45.146C115.412 45.842 114.962 46.358 114.338 46.694C113.726 47.03 112.904 47.198 111.872 47.198ZM111.872 45.218C112.376 45.218 112.754 45.128 113.006 44.948C113.258 44.756 113.426 44.456 113.51 44.048C113.606 43.628 113.654 43.082 113.654 42.41C113.654 41.75 113.6 41.228 113.492 40.844C113.384 40.448 113.204 40.166 112.952 39.998C112.7 39.83 112.34 39.746 111.872 39.746C111.416 39.746 111.056 39.83 110.792 39.998C110.54 40.166 110.36 40.448 110.252 40.844C110.144 41.228 110.09 41.75 110.09 42.41C110.09 43.082 110.132 43.628 110.216 44.048C110.312 44.456 110.486 44.756 110.738 44.948C110.99 45.128 111.368 45.218 111.872 45.218ZM117.74 47V37.964H120.134V39.026C120.338 38.87 120.59 38.708 120.89 38.54C121.19 38.36 121.514 38.198 121.862 38.054C122.222 37.898 122.564 37.796 122.888 37.748V40.07C122.576 40.118 122.246 40.202 121.898 40.322C121.55 40.43 121.22 40.55 120.908 40.682C120.608 40.814 120.35 40.934 120.134 41.042V47H117.74ZM127.792 47.198C126.796 47.198 126.004 47.03 125.416 46.694C124.84 46.358 124.426 45.848 124.174 45.164C123.922 44.48 123.796 43.622 123.796 42.59C123.796 41.474 123.952 40.562 124.264 39.854C124.588 39.146 125.056 38.624 125.668 38.288C126.28 37.94 127.036 37.766 127.936 37.766C129.268 37.766 130.27 38.102 130.942 38.774C131.626 39.446 131.968 40.508 131.968 41.96L131.86 43.292H126.208C126.22 43.964 126.358 44.468 126.622 44.804C126.886 45.14 127.342 45.308 127.99 45.308C128.362 45.308 128.77 45.302 129.214 45.29C129.658 45.266 130.096 45.242 130.528 45.218C130.972 45.194 131.35 45.17 131.662 45.146L131.716 46.82C131.416 46.868 131.038 46.922 130.582 46.982C130.126 47.042 129.652 47.09 129.16 47.126C128.68 47.174 128.224 47.198 127.792 47.198ZM126.208 41.762H129.574C129.574 40.946 129.442 40.376 129.178 40.052C128.926 39.728 128.512 39.566 127.936 39.566C127.372 39.566 126.94 39.734 126.64 40.07C126.352 40.406 126.208 40.97 126.208 41.762Z" fill="white"/>
</g>
<defs>
<filter id="filter0_b_4924_5691" x="53.1338" y="8.97607" width="95.1514" height="18.1777" filterUnits="userSpaceOnUse" color-interpolation-filters="sRGB">
<feFlood flood-opacity="0" result="BackgroundImageFix"/>
<feGaussianBlur in="BackgroundImageFix" stdDeviation="2"/>
<feComposite in2="SourceAlpha" operator="in" result="effect1_backgroundBlur_4924_5691"/>
<feBlend mode="normal" in="SourceGraphic" in2="effect1_backgroundBlur_4924_5691" result="shape"/>
</filter>
<filter id="filter1_b_4924_5691" x="52.2158" y="30.4902" width="83.7524" height="24.3076" filterUnits="userSpaceOnUse" color-interpolation-filters="sRGB">
<feFlood flood-opacity="0" result="BackgroundImageFix"/>
<feGaussianBlur in="BackgroundImageFix" stdDeviation="2"/>
<feComposite in2="SourceAlpha" operator="in" result="effect1_backgroundBlur_4924_5691"/>
<feBlend mode="normal" in="SourceGraphic" in2="effect1_backgroundBlur_4924_5691" result="shape"/>
</filter>
</defs>
</svg>
