<svg width="163" height="62" viewBox="0 0 163 62" fill="none" xmlns="http://www.w3.org/2000/svg">
<rect x="1" y="0.5" width="161" height="61" rx="15.5" stroke="white"/>
<path d="M34.1826 33.1011C34.1974 33.1104 34.2145 33.1152 34.232 33.1152C34.2494 33.1152 34.2665 33.1104 34.2813 33.1011C36.8741 31.8769 39.3143 30.3527 41.552 28.5598C42.2548 27.9436 42.6904 27.0781 42.7666 26.1465C42.6476 24.6224 41.9513 23.2012 40.82 22.1731C38.1902 25.5064 35.9557 29.1333 34.1613 32.9811C34.1613 32.9811 34.128 33.0585 34.1826 33.1011ZM44.2813 28.2971C44.2813 28.2971 38.0146 31.6598 34.772 33.8545C34.7567 33.8681 34.7448 33.8851 34.7372 33.904C34.7296 33.923 34.7264 33.9434 34.728 33.9638C34.728 33.9638 34.7613 34.0185 34.8053 34.0185C35.9626 34.0185 40.3626 34.0185 40.4706 34.0078C40.9054 33.9749 41.3326 33.8755 41.7373 33.7131C42.7952 33.2958 43.6488 32.4827 44.1173 31.4465C44.5506 30.451 44.6089 29.3323 44.2813 28.2971ZM42.316 34.8158L34.936 34.5491V34.5611C34.918 34.5619 34.9005 34.5672 34.8851 34.5765C34.8697 34.5858 34.8569 34.5989 34.848 34.6145C34.8446 34.6324 34.8459 34.6509 34.8518 34.6682C34.8576 34.6854 34.8678 34.7009 34.8813 34.7131C36.0774 35.6291 37.3786 36.399 38.7573 37.0065C38.7573 37.0065 40.668 37.6545 42.316 34.8158ZM33.1786 32.4905L33.1893 32.5118C33.2546 32.5451 33.2986 32.4678 33.2986 32.4678C34.008 31.4425 37.1853 26.7145 37.84 23.8318C38.0319 23.0614 38.0319 22.2556 37.84 21.4851C37.6623 20.9287 37.3454 20.4269 36.9193 20.0274C36.4932 19.6279 35.972 19.3439 35.4053 19.2025C35.4053 19.2025 34.848 19.0611 34.248 18.9731C34.248 18.9731 32.064 21.7905 33.124 32.4131C33.1225 32.4304 33.1271 32.4477 33.1371 32.4618C33.1471 32.476 33.1618 32.4861 33.1786 32.4905ZM31.7 32.4905C31.744 32.5451 31.7866 32.5225 31.7866 32.5225C31.8067 32.5192 31.8247 32.5084 31.8371 32.4923C31.8494 32.4762 31.8552 32.456 31.8533 32.4358C32.9 21.8118 30.732 18.9998 30.732 18.9998L30.744 18.9891C30.4266 19.0211 29.5533 19.2185 29.5533 19.2185C28.9905 19.3615 28.4736 19.6457 28.0513 20.0442C27.629 20.4427 27.3153 20.9423 27.14 21.4958C26.934 22.2645 26.934 23.0738 27.14 23.8425C27.796 26.7331 30.9946 31.4971 31.7 32.4905ZM23.232 33.7025C23.6806 33.8833 24.1567 33.9866 24.64 34.0078C24.7493 34.0291 29.0293 34.0078 30.176 34.0078C30.2186 34.0078 30.252 33.9531 30.252 33.9531V33.9638C30.2853 33.9091 30.2306 33.8545 30.2306 33.8545C26.988 31.6665 20.7093 28.3091 20.7093 28.3091C20.3694 29.3605 20.4407 30.5016 20.9089 31.5024C21.377 32.5033 22.2071 33.2895 23.232 33.7025ZM30.0453 34.5651L22.6746 34.8158C23.4746 36.2465 24.8253 37.3491 26.224 37.0105C27.6075 36.406 28.9126 35.636 30.1106 34.7171C30.1653 34.6625 30.1426 34.6185 30.1426 34.6185V34.6305C30.1345 34.6113 30.121 34.5949 30.1037 34.5832C30.0864 34.5716 30.0661 34.5653 30.0453 34.5651ZM23.4333 28.5598C25.6782 30.3569 28.126 31.8846 30.7266 33.1118C30.7386 33.1118 30.7933 33.1345 30.8253 33.0905V33.1011C30.8381 33.0912 30.8471 33.0772 30.851 33.0615C30.8549 33.0458 30.8533 33.0292 30.8466 33.0145C29.0511 29.153 26.8106 25.5146 24.1706 22.1731C24.1706 22.1731 22.0746 24.1598 22.2333 26.1571C22.3 27.0852 22.7315 27.949 23.4333 28.5598ZM43.5826 39.1171H44.5V42.9825H43.5826V39.1171ZM39.38 41.1331C39.3553 41.4194 39.4011 41.7074 39.5133 41.9719C39.6256 42.2364 39.8009 42.4693 40.024 42.6505C40.4025 42.9148 40.8632 43.035 41.3226 42.9891H42.808V42.3118H41.3666C40.6786 42.3118 40.3733 42.0611 40.3733 41.3625H42.808V40.6851H40.388V40.7078L40.3773 40.6851H40.392C40.3869 40.5598 40.4097 40.435 40.4587 40.3195C40.5076 40.2041 40.5815 40.1009 40.6751 40.0174C40.7687 39.9339 40.8796 39.8722 40.9998 39.8367C41.1201 39.8011 41.2467 39.7926 41.3706 39.8118H42.812V39.1331H41.3453C40.0013 39.1331 39.38 39.7718 39.38 41.1331ZM40.384 40.7118V40.6891H40.3693L40.384 40.7118ZM37.392 42.0865L36.4533 39.1171H35.416L34.5973 42.0865L33.636 39.1171H32.6866L34.084 42.9825H35.1546L35.9293 40.0998L36.8253 42.9825H37.8946L39.1933 39.1171H38.288L37.392 42.0865ZM31.516 39.1478H30.5826L28.8133 43.0145H29.7466L30.1186 42.0971H31.9306L32.3133 43.0145H33.2946L31.516 39.1478ZM30.4026 41.4145L31.0133 39.9291L31.6466 41.4145H30.4026ZM27.7 41.4318C27.7 42.1198 27.4813 42.4038 26.7666 42.4038C26.052 42.4038 25.8333 42.1091 25.8333 41.4318V39.1171H24.9453V41.4531C24.8929 41.8169 24.979 42.1872 25.1866 42.4905C25.3931 42.6898 25.6412 42.8409 25.9129 42.9331C26.1847 43.0253 26.4735 43.0563 26.7586 43.0238C27.0438 43.0563 27.3325 43.0253 27.6043 42.9331C27.8761 42.8409 28.1241 42.6898 28.3306 42.4905C28.5346 42.1854 28.6234 41.8177 28.5813 41.4531V39.1171H27.7V41.4318ZM23.352 40.6891H21.3866V39.1171H20.5026V42.9825H21.3866V41.3665H23.352V42.9825H24.2253V39.1171H23.352V40.6891Z" fill="white"/>
<g filter="url(#filter0_b_4924_5683)">
<path d="M58.175 23V13.34H64.153V14.418H59.407V17.568H63.313V18.632H59.407V21.922H64.153V23H58.175ZM65.0733 23L67.2013 19.5L65.0733 16H66.3753L67.9853 18.674L69.6093 16H70.8973L68.7413 19.472L70.8973 23H69.5813L67.9573 20.34L66.3613 23H65.0733ZM72.1577 26.08V16H73.3337V16.49C73.4831 16.3967 73.6697 16.3033 73.8937 16.21C74.1177 16.1073 74.3557 16.0233 74.6077 15.958C74.8691 15.8927 75.1211 15.86 75.3637 15.86C76.2597 15.86 76.9131 16.1447 77.3237 16.714C77.7344 17.2833 77.9397 18.184 77.9397 19.416C77.9397 20.3307 77.8324 21.0633 77.6177 21.614C77.4124 22.1553 77.0811 22.5473 76.6237 22.79C76.1757 23.0233 75.5924 23.14 74.8737 23.14C74.5937 23.14 74.3044 23.1213 74.0057 23.084C73.7164 23.0467 73.4924 23.014 73.3337 22.986V26.08H72.1577ZM74.7757 22.104C75.2704 22.104 75.6577 22.0153 75.9377 21.838C76.2177 21.6513 76.4137 21.362 76.5257 20.97C76.6471 20.5687 76.7077 20.0507 76.7077 19.416C76.7077 18.5013 76.5724 17.8573 76.3017 17.484C76.0311 17.1013 75.6531 16.91 75.1677 16.91C74.9531 16.91 74.7291 16.938 74.4957 16.994C74.2717 17.05 74.0571 17.1153 73.8517 17.19C73.6464 17.2647 73.4737 17.344 73.3337 17.428V21.978C73.4831 21.9967 73.6931 22.0247 73.9637 22.062C74.2437 22.09 74.5144 22.104 74.7757 22.104ZM79.6516 23V12.976H80.8416V23H79.6516ZM85.6065 23.14C84.8225 23.14 84.2065 23.0047 83.7585 22.734C83.3198 22.4633 83.0118 22.0573 82.8345 21.516C82.6572 20.9653 82.5685 20.2653 82.5685 19.416C82.5685 18.6133 82.6665 17.9507 82.8625 17.428C83.0585 16.896 83.3805 16.504 83.8285 16.252C84.2765 15.9907 84.8692 15.86 85.6065 15.86C86.3532 15.86 86.9505 15.9907 87.3985 16.252C87.8465 16.504 88.1685 16.896 88.3645 17.428C88.5605 17.9507 88.6585 18.6133 88.6585 19.416C88.6585 20.2653 88.5652 20.9653 88.3785 21.516C88.2012 22.0573 87.8932 22.4633 87.4545 22.734C87.0158 23.0047 86.3998 23.14 85.6065 23.14ZM85.6065 22.118C86.1292 22.118 86.5212 22.0293 86.7825 21.852C87.0438 21.6653 87.2165 21.3713 87.3005 20.97C87.3845 20.5687 87.4265 20.0507 87.4265 19.416C87.4265 18.7907 87.3705 18.2913 87.2585 17.918C87.1558 17.5447 86.9738 17.2787 86.7125 17.12C86.4512 16.9613 86.0825 16.882 85.6065 16.882C85.1398 16.882 84.7712 16.9613 84.5005 17.12C84.2392 17.2787 84.0525 17.5447 83.9405 17.918C83.8378 18.2913 83.7865 18.7907 83.7865 19.416C83.7865 20.0507 83.8285 20.5687 83.9125 20.97C83.9965 21.3713 84.1692 21.6653 84.4305 21.852C84.6918 22.0293 85.0838 22.118 85.6065 22.118ZM90.314 23V16H91.49V16.924C91.6673 16.8027 91.8867 16.672 92.148 16.532C92.4187 16.3827 92.7127 16.2427 93.03 16.112C93.3473 15.9813 93.6647 15.8927 93.982 15.846V17.036C93.674 17.1013 93.3613 17.1853 93.044 17.288C92.7267 17.3907 92.4327 17.5027 92.162 17.624C91.8913 17.7453 91.6673 17.8527 91.49 17.946V23H90.314ZM97.7012 23.14C96.9918 23.14 96.4318 23.0047 96.0212 22.734C95.6105 22.4633 95.3118 22.062 95.1252 21.53C94.9478 20.998 94.8592 20.3353 94.8592 19.542C94.8592 18.6647 94.9805 17.9553 95.2232 17.414C95.4658 16.8727 95.8065 16.4807 96.2452 16.238C96.6932 15.986 97.2252 15.86 97.8412 15.86C98.7932 15.86 99.5072 16.1213 99.9832 16.644C100.469 17.1573 100.711 17.9833 100.711 19.122L100.655 19.99H96.0772C96.0865 20.6807 96.2172 21.208 96.4692 21.572C96.7212 21.9267 97.1785 22.104 97.8412 22.104C98.1025 22.104 98.3918 22.0993 98.7092 22.09C99.0265 22.0713 99.3392 22.0527 99.6472 22.034C99.9645 22.0153 100.231 21.9967 100.445 21.978L100.473 22.902C100.249 22.9393 99.9738 22.9767 99.6472 23.014C99.3205 23.0513 98.9845 23.0793 98.6392 23.098C98.3032 23.126 97.9905 23.14 97.7012 23.14ZM96.0772 19.052H99.5072C99.5072 18.2307 99.3765 17.6567 99.1152 17.33C98.8538 16.994 98.4292 16.826 97.8412 16.826C97.2718 16.826 96.8332 16.9987 96.5252 17.344C96.2265 17.6893 96.0772 18.2587 96.0772 19.052ZM105.353 23V16H106.529V23H105.353ZM105.353 14.516V13.214H106.529V14.516H105.353ZM110.794 23.154C110.309 23.154 109.921 23.0793 109.632 22.93C109.343 22.7807 109.133 22.524 109.002 22.16C108.881 21.7867 108.82 21.264 108.82 20.592V17.022H107.854V16H108.82V13.9H110.01V16H112.152V17.022H110.01V20.256C110.01 20.732 110.029 21.1053 110.066 21.376C110.113 21.6373 110.201 21.824 110.332 21.936C110.472 22.0387 110.687 22.09 110.976 22.09C111.069 22.09 111.186 22.0853 111.326 22.076C111.475 22.0667 111.625 22.0573 111.774 22.048C111.933 22.0293 112.068 22.0153 112.18 22.006L112.25 23C112.045 23.028 111.797 23.0607 111.508 23.098C111.228 23.1353 110.99 23.154 110.794 23.154ZM119.212 23.14C118.428 23.14 117.812 23.0047 117.364 22.734C116.925 22.4633 116.617 22.0573 116.44 21.516C116.263 20.9653 116.174 20.2653 116.174 19.416C116.174 18.6133 116.272 17.9507 116.468 17.428C116.664 16.896 116.986 16.504 117.434 16.252C117.882 15.9907 118.475 15.86 119.212 15.86C119.959 15.86 120.556 15.9907 121.004 16.252C121.452 16.504 121.774 16.896 121.97 17.428C122.166 17.9507 122.264 18.6133 122.264 19.416C122.264 20.2653 122.171 20.9653 121.984 21.516C121.807 22.0573 121.499 22.4633 121.06 22.734C120.621 23.0047 120.005 23.14 119.212 23.14ZM119.212 22.118C119.735 22.118 120.127 22.0293 120.388 21.852C120.649 21.6653 120.822 21.3713 120.906 20.97C120.99 20.5687 121.032 20.0507 121.032 19.416C121.032 18.7907 120.976 18.2913 120.864 17.918C120.761 17.5447 120.579 17.2787 120.318 17.12C120.057 16.9613 119.688 16.882 119.212 16.882C118.745 16.882 118.377 16.9613 118.106 17.12C117.845 17.2787 117.658 17.5447 117.546 17.918C117.443 18.2913 117.392 18.7907 117.392 19.416C117.392 20.0507 117.434 20.5687 117.518 20.97C117.602 21.3713 117.775 21.6653 118.036 21.852C118.297 22.0293 118.689 22.118 119.212 22.118ZM123.919 23V16H125.095V16.476C125.254 16.3827 125.45 16.2893 125.683 16.196C125.926 16.1027 126.178 16.0233 126.439 15.958C126.71 15.8927 126.967 15.86 127.209 15.86C127.853 15.86 128.348 15.9767 128.693 16.21C129.039 16.434 129.277 16.798 129.407 17.302C129.538 17.806 129.603 18.4733 129.603 19.304V23H128.413V19.346C128.413 18.758 128.376 18.2867 128.301 17.932C128.236 17.5773 128.101 17.3207 127.895 17.162C127.699 17.0033 127.391 16.924 126.971 16.924C126.747 16.924 126.514 16.952 126.271 17.008C126.038 17.0547 125.819 17.1153 125.613 17.19C125.408 17.2647 125.235 17.3393 125.095 17.414V23H123.919Z" fill="white"/>
</g>
<g filter="url(#filter1_b_4924_5683)">
<path d="M57.6652 47L60.7972 34.706H65.1352L68.2492 47H65.7652L65.0812 44.516H60.7792L60.1312 47H57.6652ZM61.1752 42.518H64.7212L63.3352 36.722H62.5792L61.1752 42.518ZM69.4607 50.798V37.964H71.8367L71.8547 38.54C72.0227 38.432 72.2327 38.318 72.4847 38.198C72.7487 38.078 73.0307 37.976 73.3307 37.892C73.6307 37.808 73.9247 37.766 74.2127 37.766C75.4247 37.766 76.2947 38.156 76.8227 38.936C77.3507 39.704 77.6147 40.874 77.6147 42.446C77.6147 43.574 77.4827 44.486 77.2187 45.182C76.9547 45.878 76.5287 46.388 75.9407 46.712C75.3647 47.036 74.6027 47.198 73.6547 47.198C73.3547 47.198 73.0307 47.174 72.6827 47.126C72.3347 47.078 72.0587 47.03 71.8547 46.982V50.798H69.4607ZM73.2767 45.2C73.7567 45.2 74.1347 45.098 74.4107 44.894C74.6867 44.69 74.8787 44.384 74.9867 43.976C75.1067 43.556 75.1667 43.028 75.1667 42.392C75.1667 41.408 75.0287 40.73 74.7527 40.358C74.4887 39.974 74.1047 39.782 73.6007 39.782C73.4087 39.782 73.2047 39.806 72.9887 39.854C72.7727 39.902 72.5627 39.962 72.3587 40.034C72.1547 40.106 71.9867 40.178 71.8547 40.25V45.074C71.9987 45.086 72.2027 45.11 72.4667 45.146C72.7427 45.182 73.0127 45.2 73.2767 45.2ZM79.2517 50.798V37.964H81.6277L81.6457 38.54C81.8137 38.432 82.0237 38.318 82.2757 38.198C82.5397 38.078 82.8217 37.976 83.1217 37.892C83.4217 37.808 83.7157 37.766 84.0037 37.766C85.2157 37.766 86.0857 38.156 86.6137 38.936C87.1417 39.704 87.4057 40.874 87.4057 42.446C87.4057 43.574 87.2737 44.486 87.0097 45.182C86.7457 45.878 86.3197 46.388 85.7317 46.712C85.1557 47.036 84.3937 47.198 83.4457 47.198C83.1457 47.198 82.8217 47.174 82.4737 47.126C82.1257 47.078 81.8497 47.03 81.6457 46.982V50.798H79.2517ZM83.0677 45.2C83.5477 45.2 83.9257 45.098 84.2017 44.894C84.4777 44.69 84.6697 44.384 84.7777 43.976C84.8977 43.556 84.9577 43.028 84.9577 42.392C84.9577 41.408 84.8197 40.73 84.5437 40.358C84.2797 39.974 83.8957 39.782 83.3917 39.782C83.1997 39.782 82.9957 39.806 82.7797 39.854C82.5637 39.902 82.3537 39.962 82.1497 40.034C81.9457 40.106 81.7777 40.178 81.6457 40.25V45.074C81.7897 45.086 81.9937 45.11 82.2577 45.146C82.5337 45.182 82.8037 45.2 83.0677 45.2ZM97.8767 47.18C96.8447 47.18 95.9927 47.048 95.3207 46.784C94.6487 46.508 94.1207 46.106 93.7367 45.578C93.3647 45.038 93.1007 44.378 92.9447 43.598C92.7887 42.806 92.7107 41.894 92.7107 40.862C92.7107 39.77 92.7947 38.828 92.9627 38.036C93.1427 37.232 93.4307 36.572 93.8267 36.056C94.2347 35.528 94.7627 35.138 95.4107 34.886C96.0707 34.622 96.8807 34.49 97.8407 34.49C98.3327 34.49 98.8427 34.52 99.3707 34.58C99.9107 34.628 100.421 34.694 100.901 34.778C101.393 34.862 101.801 34.946 102.125 35.03L102.089 36.974C101.753 36.914 101.345 36.86 100.865 36.812C100.397 36.764 99.9167 36.728 99.4247 36.704C98.9327 36.668 98.4887 36.65 98.0927 36.65C97.4927 36.65 97.0007 36.728 96.6167 36.884C96.2447 37.04 95.9567 37.292 95.7527 37.64C95.5607 37.976 95.4287 38.414 95.3567 38.954C95.2847 39.482 95.2487 40.118 95.2487 40.862C95.2487 41.81 95.3147 42.602 95.4467 43.238C95.5907 43.862 95.8607 44.324 96.2567 44.624C96.6647 44.924 97.2467 45.074 98.0027 45.074C98.1947 45.074 98.3987 45.068 98.6147 45.056C98.8427 45.044 99.0587 45.026 99.2627 45.002C99.4787 44.978 99.6587 44.954 99.8027 44.93V42.248H98.3447V40.358H102.161V46.712C101.897 46.748 101.579 46.796 101.207 46.856C100.835 46.904 100.445 46.952 100.037 47C99.6407 47.048 99.2507 47.09 98.8667 47.126C98.4947 47.162 98.1647 47.18 97.8767 47.18ZM106.43 47.198C105.494 47.198 104.786 46.964 104.306 46.496C103.838 46.016 103.604 45.296 103.604 44.336C103.604 43.664 103.724 43.142 103.964 42.77C104.204 42.386 104.558 42.11 105.026 41.942C105.506 41.762 106.088 41.654 106.772 41.618L108.968 41.42V40.88C108.968 40.448 108.86 40.148 108.644 39.98C108.428 39.8 108.11 39.71 107.69 39.71C107.354 39.71 106.964 39.722 106.52 39.746C106.088 39.77 105.656 39.8 105.224 39.836C104.804 39.872 104.438 39.908 104.126 39.944L104.054 38.252C104.366 38.18 104.738 38.108 105.17 38.036C105.614 37.952 106.076 37.886 106.556 37.838C107.036 37.79 107.48 37.766 107.888 37.766C108.656 37.766 109.298 37.862 109.814 38.054C110.33 38.246 110.72 38.564 110.984 39.008C111.248 39.44 111.38 40.028 111.38 40.772V44.894C111.404 45.062 111.494 45.194 111.65 45.29C111.806 45.374 111.986 45.434 112.19 45.47L112.136 47.126C111.848 47.138 111.566 47.144 111.29 47.144C111.014 47.144 110.78 47.126 110.588 47.09C110.312 47.054 110.072 46.982 109.868 46.874C109.676 46.766 109.52 46.652 109.4 46.532C109.208 46.616 108.95 46.712 108.626 46.82C108.302 46.928 107.948 47.018 107.564 47.09C107.192 47.162 106.814 47.198 106.43 47.198ZM107.006 45.416C107.234 45.416 107.474 45.392 107.726 45.344C107.978 45.296 108.212 45.242 108.428 45.182C108.656 45.11 108.836 45.044 108.968 44.984V42.914L107.132 43.076C106.736 43.112 106.448 43.232 106.268 43.436C106.1 43.628 106.016 43.904 106.016 44.264C106.016 44.624 106.094 44.906 106.25 45.11C106.418 45.314 106.67 45.416 107.006 45.416ZM113.566 47V34.274H115.96V47H113.566ZM118.083 47V34.274H120.477V47H118.083ZM126.183 47.198C125.187 47.198 124.395 47.03 123.807 46.694C123.231 46.358 122.817 45.848 122.565 45.164C122.313 44.48 122.187 43.622 122.187 42.59C122.187 41.474 122.343 40.562 122.655 39.854C122.979 39.146 123.447 38.624 124.059 38.288C124.671 37.94 125.427 37.766 126.327 37.766C127.659 37.766 128.661 38.102 129.333 38.774C130.017 39.446 130.359 40.508 130.359 41.96L130.251 43.292H124.599C124.611 43.964 124.749 44.468 125.013 44.804C125.277 45.14 125.733 45.308 126.381 45.308C126.753 45.308 127.161 45.302 127.605 45.29C128.049 45.266 128.487 45.242 128.919 45.218C129.363 45.194 129.741 45.17 130.053 45.146L130.107 46.82C129.807 46.868 129.429 46.922 128.973 46.982C128.517 47.042 128.043 47.09 127.551 47.126C127.071 47.174 126.615 47.198 126.183 47.198ZM124.599 41.762H127.965C127.965 40.946 127.833 40.376 127.569 40.052C127.317 39.728 126.903 39.566 126.327 39.566C125.763 39.566 125.331 39.734 125.031 40.07C124.743 40.406 124.599 40.97 124.599 41.762ZM131.951 47V37.964H134.345V39.026C134.549 38.87 134.801 38.708 135.101 38.54C135.401 38.36 135.725 38.198 136.073 38.054C136.433 37.898 136.775 37.796 137.099 37.748V40.07C136.787 40.118 136.457 40.202 136.109 40.322C135.761 40.43 135.431 40.55 135.119 40.682C134.819 40.814 134.561 40.934 134.345 41.042V47H131.951ZM140.563 50.798L141.715 47H139.789L137.647 37.964H140.149L141.751 44.966H142.219L143.821 37.964H146.233L143.119 50.798H140.563Z" fill="white"/>
</g>
<defs>
<filter id="filter0_b_4924_5683" x="54.1748" y="8.97607" width="79.4287" height="21.104" filterUnits="userSpaceOnUse" color-interpolation-filters="sRGB">
<feFlood flood-opacity="0" result="BackgroundImageFix"/>
<feGaussianBlur in="BackgroundImageFix" stdDeviation="2"/>
<feComposite in2="SourceAlpha" operator="in" result="effect1_backgroundBlur_4924_5683"/>
<feBlend mode="normal" in="SourceGraphic" in2="effect1_backgroundBlur_4924_5683" result="shape"/>
</filter>
<filter id="filter1_b_4924_5683" x="53.665" y="30.2739" width="96.5684" height="24.5239" filterUnits="userSpaceOnUse" color-interpolation-filters="sRGB">
<feFlood flood-opacity="0" result="BackgroundImageFix"/>
<feGaussianBlur in="BackgroundImageFix" stdDeviation="2"/>
<feComposite in2="SourceAlpha" operator="in" result="effect1_backgroundBlur_4924_5683"/>
<feBlend mode="normal" in="SourceGraphic" in2="effect1_backgroundBlur_4924_5683" result="shape"/>
</filter>
</defs>
</svg>
