<svg width="164" height="62" viewBox="0 0 164 62" fill="none" xmlns="http://www.w3.org/2000/svg">
<rect x="0.5" y="0.5" width="163" height="61" rx="15.5" stroke="white"/>
<path d="M45.3573 32.7306L40.132 35.6879L35.4453 31.0306L40.1693 26.3359L45.3573 29.2719C45.6635 29.4451 45.9182 29.6964 46.0955 30.0002C46.2727 30.3041 46.3661 30.6495 46.3661 31.0012C46.3661 31.353 46.2727 31.6984 46.0955 32.0023C45.9182 32.3061 45.6635 32.5574 45.3573 32.7306ZM17.7826 16.2319C17.6837 16.4721 17.6329 16.7295 17.6333 16.9892V45.0119C17.6333 45.3012 17.6933 45.5706 17.7986 45.8119L32.672 31.0292L17.7826 16.2319ZM34.0586 29.6519L38.4026 25.3346L20.6 15.2599C20.2184 15.0406 19.774 14.9565 19.3386 15.0212L34.0586 29.6519ZM34.0586 32.4079L19.392 46.9852C19.7893 47.0332 20.208 46.9639 20.6 46.7412L38.3653 36.6879L34.0586 32.4079Z" fill="white"/>
<g filter="url(#filter0_b_4924_5698)">
<path d="M60.7023 23.14C59.9557 23.14 59.335 23.0327 58.8403 22.818C58.355 22.594 57.9677 22.272 57.6783 21.852C57.3983 21.432 57.1977 20.914 57.0763 20.298C56.9643 19.682 56.9083 18.9773 56.9083 18.184C56.9083 17.372 56.9643 16.658 57.0763 16.042C57.1977 15.4167 57.403 14.894 57.6923 14.474C57.9817 14.0447 58.369 13.7227 58.8543 13.508C59.3397 13.2933 59.9463 13.186 60.6743 13.186C61.0477 13.186 61.4303 13.2047 61.8223 13.242C62.2237 13.2793 62.6063 13.3307 62.9703 13.396C63.3343 13.452 63.6377 13.508 63.8803 13.564L63.8383 14.572C63.5957 14.5253 63.2923 14.4833 62.9283 14.446C62.5737 14.3993 62.2097 14.362 61.8363 14.334C61.4723 14.306 61.1363 14.292 60.8283 14.292C60.287 14.292 59.8437 14.3713 59.4983 14.53C59.153 14.6793 58.8823 14.9173 58.6863 15.244C58.4997 15.5613 58.369 15.9627 58.2943 16.448C58.2197 16.9333 58.1823 17.512 58.1823 18.184C58.1823 19.0613 58.2477 19.7893 58.3783 20.368C58.5183 20.9373 58.775 21.362 59.1483 21.642C59.531 21.922 60.0817 22.062 60.8003 22.062C61.0057 22.062 61.2203 22.0527 61.4443 22.034C61.6777 22.0153 61.9063 21.992 62.1303 21.964C62.3543 21.936 62.5363 21.908 62.6763 21.88V19.08H61.1643V18.016H63.8803V22.804C63.7217 22.832 63.507 22.8647 63.2363 22.902C62.975 22.9393 62.6903 22.9767 62.3823 23.014C62.0837 23.0513 61.785 23.0793 61.4863 23.098C61.197 23.126 60.9357 23.14 60.7023 23.14ZM68.2793 23.14C67.57 23.14 67.01 23.0047 66.5993 22.734C66.1886 22.4633 65.89 22.062 65.7033 21.53C65.526 20.998 65.4373 20.3353 65.4373 19.542C65.4373 18.6647 65.5586 17.9553 65.8013 17.414C66.044 16.8727 66.3846 16.4807 66.8233 16.238C67.2713 15.986 67.8033 15.86 68.4193 15.86C69.3713 15.86 70.0853 16.1213 70.5613 16.644C71.0466 17.1573 71.2893 17.9833 71.2893 19.122L71.2333 19.99H66.6553C66.6646 20.6807 66.7953 21.208 67.0473 21.572C67.2993 21.9267 67.7566 22.104 68.4193 22.104C68.6806 22.104 68.97 22.0993 69.2873 22.09C69.6046 22.0713 69.9173 22.0527 70.2253 22.034C70.5426 22.0153 70.8086 21.9967 71.0233 21.978L71.0513 22.902C70.8273 22.9393 70.552 22.9767 70.2253 23.014C69.8986 23.0513 69.5626 23.0793 69.2173 23.098C68.8813 23.126 68.5686 23.14 68.2793 23.14ZM66.6553 19.052H70.0853C70.0853 18.2307 69.9546 17.6567 69.6933 17.33C69.432 16.994 69.0073 16.826 68.4193 16.826C67.85 16.826 67.4113 16.9987 67.1033 17.344C66.8046 17.6893 66.6553 18.2587 66.6553 19.052ZM75.165 23.154C74.6797 23.154 74.2923 23.0793 74.003 22.93C73.7137 22.7807 73.5037 22.524 73.373 22.16C73.2517 21.7867 73.191 21.264 73.191 20.592V17.022H72.225V16H73.191V13.9H74.381V16H76.523V17.022H74.381V20.256C74.381 20.732 74.3997 21.1053 74.437 21.376C74.4837 21.6373 74.5723 21.824 74.703 21.936C74.843 22.0387 75.0577 22.09 75.347 22.09C75.4403 22.09 75.557 22.0853 75.697 22.076C75.8463 22.0667 75.9957 22.0573 76.145 22.048C76.3037 22.0293 76.439 22.0153 76.551 22.006L76.621 23C76.4157 23.028 76.1683 23.0607 75.879 23.098C75.599 23.1353 75.361 23.154 75.165 23.154ZM80.853 23V16H82.029V23H80.853ZM80.853 14.516V13.214H82.029V14.516H80.853ZM86.2939 23.154C85.8086 23.154 85.4212 23.0793 85.1319 22.93C84.8426 22.7807 84.6326 22.524 84.5019 22.16C84.3806 21.7867 84.3199 21.264 84.3199 20.592V17.022H83.3539V16H84.3199V13.9H85.5099V16H87.6519V17.022H85.5099V20.256C85.5099 20.732 85.5286 21.1053 85.5659 21.376C85.6126 21.6373 85.7012 21.824 85.8319 21.936C85.9719 22.0387 86.1866 22.09 86.4759 22.09C86.5692 22.09 86.6859 22.0853 86.8259 22.076C86.9752 22.0667 87.1246 22.0573 87.2739 22.048C87.4326 22.0293 87.5679 22.0153 87.6799 22.006L87.7499 23C87.5446 23.028 87.2972 23.0607 87.0079 23.098C86.7279 23.1353 86.4899 23.154 86.2939 23.154ZM94.712 23.14C93.928 23.14 93.312 23.0047 92.864 22.734C92.4253 22.4633 92.1173 22.0573 91.94 21.516C91.7626 20.9653 91.674 20.2653 91.674 19.416C91.674 18.6133 91.772 17.9507 91.968 17.428C92.164 16.896 92.486 16.504 92.934 16.252C93.382 15.9907 93.9746 15.86 94.712 15.86C95.4586 15.86 96.056 15.9907 96.504 16.252C96.952 16.504 97.274 16.896 97.47 17.428C97.666 17.9507 97.764 18.6133 97.764 19.416C97.764 20.2653 97.6706 20.9653 97.484 21.516C97.3066 22.0573 96.9986 22.4633 96.56 22.734C96.1213 23.0047 95.5053 23.14 94.712 23.14ZM94.712 22.118C95.2346 22.118 95.6266 22.0293 95.888 21.852C96.1493 21.6653 96.322 21.3713 96.406 20.97C96.49 20.5687 96.532 20.0507 96.532 19.416C96.532 18.7907 96.476 18.2913 96.364 17.918C96.2613 17.5447 96.0793 17.2787 95.818 17.12C95.5566 16.9613 95.188 16.882 94.712 16.882C94.2453 16.882 93.8766 16.9613 93.606 17.12C93.3446 17.2787 93.158 17.5447 93.046 17.918C92.9433 18.2913 92.892 18.7907 92.892 19.416C92.892 20.0507 92.934 20.5687 93.018 20.97C93.102 21.3713 93.2746 21.6653 93.536 21.852C93.7973 22.0293 94.1893 22.118 94.712 22.118ZM99.4195 23V16H100.595V16.476C100.754 16.3827 100.95 16.2893 101.183 16.196C101.426 16.1027 101.678 16.0233 101.939 15.958C102.21 15.8927 102.467 15.86 102.709 15.86C103.353 15.86 103.848 15.9767 104.193 16.21C104.539 16.434 104.777 16.798 104.907 17.302C105.038 17.806 105.103 18.4733 105.103 19.304V23H103.913V19.346C103.913 18.758 103.876 18.2867 103.801 17.932C103.736 17.5773 103.601 17.3207 103.395 17.162C103.199 17.0033 102.891 16.924 102.471 16.924C102.247 16.924 102.014 16.952 101.771 17.008C101.538 17.0547 101.319 17.1153 101.113 17.19C100.908 17.2647 100.735 17.3393 100.595 17.414V23H99.4195Z" fill="white"/>
</g>
<g filter="url(#filter1_b_4924_5698)">
<path d="M61.9528 47.18C60.9208 47.18 60.0688 47.048 59.3968 46.784C58.7248 46.508 58.1968 46.106 57.8128 45.578C57.4408 45.038 57.1768 44.378 57.0208 43.598C56.8648 42.806 56.7868 41.894 56.7868 40.862C56.7868 39.77 56.8708 38.828 57.0388 38.036C57.2188 37.232 57.5068 36.572 57.9028 36.056C58.3108 35.528 58.8388 35.138 59.4868 34.886C60.1468 34.622 60.9568 34.49 61.9168 34.49C62.4088 34.49 62.9188 34.52 63.4468 34.58C63.9868 34.628 64.4968 34.694 64.9768 34.778C65.4688 34.862 65.8768 34.946 66.2008 35.03L66.1648 36.974C65.8288 36.914 65.4208 36.86 64.9408 36.812C64.4728 36.764 63.9928 36.728 63.5008 36.704C63.0088 36.668 62.5648 36.65 62.1688 36.65C61.5688 36.65 61.0768 36.728 60.6928 36.884C60.3208 37.04 60.0328 37.292 59.8288 37.64C59.6368 37.976 59.5048 38.414 59.4328 38.954C59.3608 39.482 59.3248 40.118 59.3248 40.862C59.3248 41.81 59.3908 42.602 59.5228 43.238C59.6668 43.862 59.9368 44.324 60.3328 44.624C60.7408 44.924 61.3228 45.074 62.0788 45.074C62.2708 45.074 62.4748 45.068 62.6908 45.056C62.9188 45.044 63.1348 45.026 63.3388 45.002C63.5548 44.978 63.7348 44.954 63.8788 44.93V42.248H62.4208V40.358H66.2368V46.712C65.9728 46.748 65.6548 46.796 65.2828 46.856C64.9108 46.904 64.5208 46.952 64.1128 47C63.7168 47.048 63.3268 47.09 62.9428 47.126C62.5708 47.162 62.2408 47.18 61.9528 47.18ZM72.0362 47.198C71.0162 47.198 70.1942 47.03 69.5702 46.694C68.9582 46.358 68.5142 45.842 68.2382 45.146C67.9622 44.438 67.8242 43.526 67.8242 42.41C67.8242 41.33 67.9682 40.454 68.2562 39.782C68.5442 39.098 69.0002 38.594 69.6242 38.27C70.2482 37.934 71.0522 37.766 72.0362 37.766C73.0322 37.766 73.8362 37.934 74.4482 38.27C75.0722 38.594 75.5282 39.098 75.8162 39.782C76.1162 40.454 76.2662 41.33 76.2662 42.41C76.2662 43.526 76.1282 44.438 75.8522 45.146C75.5762 45.842 75.1262 46.358 74.5022 46.694C73.8902 47.03 73.0682 47.198 72.0362 47.198ZM72.0362 45.218C72.5402 45.218 72.9182 45.128 73.1702 44.948C73.4222 44.756 73.5902 44.456 73.6742 44.048C73.7702 43.628 73.8182 43.082 73.8182 42.41C73.8182 41.75 73.7642 41.228 73.6562 40.844C73.5482 40.448 73.3682 40.166 73.1162 39.998C72.8642 39.83 72.5042 39.746 72.0362 39.746C71.5802 39.746 71.2202 39.83 70.9562 39.998C70.7042 40.166 70.5242 40.448 70.4162 40.844C70.3082 41.228 70.2542 41.75 70.2542 42.41C70.2542 43.082 70.2962 43.628 70.3802 44.048C70.4762 44.456 70.6502 44.756 70.9022 44.948C71.1542 45.128 71.5322 45.218 72.0362 45.218ZM81.7921 47.198C80.7721 47.198 79.9501 47.03 79.3261 46.694C78.7141 46.358 78.2701 45.842 77.9941 45.146C77.7181 44.438 77.5801 43.526 77.5801 42.41C77.5801 41.33 77.7241 40.454 78.0121 39.782C78.3001 39.098 78.7561 38.594 79.3801 38.27C80.0041 37.934 80.8081 37.766 81.7921 37.766C82.7881 37.766 83.5921 37.934 84.2041 38.27C84.8281 38.594 85.2841 39.098 85.5721 39.782C85.8721 40.454 86.0221 41.33 86.0221 42.41C86.0221 43.526 85.8841 44.438 85.6081 45.146C85.3321 45.842 84.8821 46.358 84.2581 46.694C83.6461 47.03 82.8241 47.198 81.7921 47.198ZM81.7921 45.218C82.2961 45.218 82.6741 45.128 82.9261 44.948C83.1781 44.756 83.3461 44.456 83.4301 44.048C83.5261 43.628 83.5741 43.082 83.5741 42.41C83.5741 41.75 83.5201 41.228 83.4121 40.844C83.3041 40.448 83.1241 40.166 82.8721 39.998C82.6201 39.83 82.2601 39.746 81.7921 39.746C81.3361 39.746 80.9761 39.83 80.7121 39.998C80.4601 40.166 80.2801 40.448 80.1721 40.844C80.0641 41.228 80.0101 41.75 80.0101 42.41C80.0101 43.082 80.0521 43.628 80.1361 44.048C80.2321 44.456 80.4061 44.756 80.6581 44.948C80.9101 45.128 81.2881 45.218 81.7921 45.218ZM91.6379 51.122C90.6779 51.122 89.8739 51.05 89.2259 50.906C88.5899 50.762 88.1099 50.498 87.7859 50.114C87.4619 49.742 87.2999 49.202 87.2999 48.494C87.2999 48.182 87.3419 47.9 87.4259 47.648C87.5219 47.408 87.6659 47.18 87.8579 46.964C88.0619 46.748 88.3139 46.526 88.6139 46.298C88.4459 46.178 88.3079 46.004 88.1999 45.776C88.1039 45.536 88.0559 45.278 88.0559 45.002C88.0559 44.858 88.1399 44.648 88.3079 44.372C88.4879 44.084 88.6619 43.832 88.8299 43.616C88.5899 43.508 88.3619 43.352 88.1459 43.148C87.9299 42.932 87.7499 42.644 87.6059 42.284C87.4739 41.924 87.4079 41.462 87.4079 40.898C87.4079 39.758 87.7319 38.954 88.3799 38.486C89.0399 38.006 89.9759 37.766 91.1879 37.766C91.4999 37.766 91.8359 37.79 92.1959 37.838C92.5559 37.886 92.8439 37.934 93.0599 37.982L95.9939 37.928V39.548L94.6259 39.53C94.7339 39.674 94.8299 39.86 94.9139 40.088C95.0099 40.304 95.0579 40.574 95.0579 40.898C95.0579 41.726 94.9139 42.368 94.6259 42.824C94.3499 43.28 93.9299 43.598 93.3659 43.778C92.8019 43.946 92.0879 44.03 91.2239 44.03C91.1279 44.03 90.9959 44.024 90.8279 44.012C90.6599 43.988 90.5219 43.97 90.4139 43.958C90.3659 44.078 90.3179 44.216 90.2699 44.372C90.2219 44.516 90.1979 44.618 90.1979 44.678C90.1979 44.834 90.2459 44.954 90.3419 45.038C90.4499 45.122 90.6599 45.182 90.9719 45.218C91.2959 45.242 91.7819 45.254 92.4299 45.254C93.2819 45.254 93.9599 45.332 94.4639 45.488C94.9799 45.644 95.3459 45.92 95.5619 46.316C95.7779 46.712 95.8859 47.27 95.8859 47.99C95.8859 49.058 95.5079 49.844 94.7519 50.348C94.0079 50.864 92.9699 51.122 91.6379 51.122ZM91.5119 49.34C92.2559 49.34 92.7899 49.25 93.1139 49.07C93.4499 48.902 93.6179 48.62 93.6179 48.224C93.6179 47.912 93.5579 47.684 93.4379 47.54C93.3299 47.396 93.1439 47.3 92.8799 47.252C92.6159 47.216 92.2559 47.198 91.7999 47.198C91.6799 47.198 91.5359 47.192 91.3679 47.18C91.1999 47.18 91.0259 47.174 90.8459 47.162C90.6779 47.162 90.5219 47.156 90.3779 47.144C90.2459 47.132 90.1499 47.126 90.0899 47.126C89.8259 47.306 89.6459 47.468 89.5499 47.612C89.4539 47.768 89.4059 47.972 89.4059 48.224C89.4059 48.5 89.4719 48.716 89.6039 48.872C89.7359 49.04 89.9519 49.16 90.2519 49.232C90.5639 49.304 90.9839 49.34 91.5119 49.34ZM91.2059 42.338C91.7579 42.338 92.1479 42.23 92.3759 42.014C92.6159 41.786 92.7359 41.414 92.7359 40.898C92.7359 40.382 92.6159 40.01 92.3759 39.782C92.1479 39.554 91.7579 39.44 91.2059 39.44C90.6779 39.44 90.2939 39.554 90.0539 39.782C89.8259 40.01 89.7119 40.382 89.7119 40.898C89.7119 41.414 89.8259 41.786 90.0539 42.014C90.2939 42.23 90.6779 42.338 91.2059 42.338ZM97.3296 47V34.274H99.7236V47H97.3296ZM105.429 47.198C104.433 47.198 103.641 47.03 103.053 46.694C102.477 46.358 102.063 45.848 101.811 45.164C101.559 44.48 101.433 43.622 101.433 42.59C101.433 41.474 101.589 40.562 101.901 39.854C102.225 39.146 102.693 38.624 103.305 38.288C103.917 37.94 104.673 37.766 105.573 37.766C106.905 37.766 107.907 38.102 108.579 38.774C109.263 39.446 109.605 40.508 109.605 41.96L109.497 43.292H103.845C103.857 43.964 103.995 44.468 104.259 44.804C104.523 45.14 104.979 45.308 105.627 45.308C105.999 45.308 106.407 45.302 106.851 45.29C107.295 45.266 107.733 45.242 108.165 45.218C108.609 45.194 108.987 45.17 109.299 45.146L109.353 46.82C109.053 46.868 108.675 46.922 108.219 46.982C107.763 47.042 107.289 47.09 106.797 47.126C106.317 47.174 105.861 47.198 105.429 47.198ZM103.845 41.762H107.211C107.211 40.946 107.079 40.376 106.815 40.052C106.563 39.728 106.149 39.566 105.573 39.566C105.009 39.566 104.577 39.734 104.277 40.07C103.989 40.406 103.845 40.97 103.845 41.762ZM115.261 47V34.706H119.887C120.907 34.706 121.753 34.85 122.425 35.138C123.097 35.414 123.601 35.864 123.937 36.488C124.285 37.112 124.459 37.946 124.459 38.99C124.459 40.034 124.285 40.886 123.937 41.546C123.601 42.194 123.097 42.674 122.425 42.986C121.753 43.286 120.907 43.436 119.887 43.436H117.745V47H115.261ZM117.745 41.402H119.815C120.571 41.402 121.111 41.204 121.435 40.808C121.759 40.4 121.921 39.8 121.921 39.008C121.921 38.192 121.759 37.61 121.435 37.262C121.111 36.914 120.571 36.74 119.815 36.74H117.745V41.402ZM125.982 47V34.274H128.376V47H125.982ZM132.786 47.198C131.85 47.198 131.142 46.964 130.662 46.496C130.194 46.016 129.96 45.296 129.96 44.336C129.96 43.664 130.08 43.142 130.32 42.77C130.56 42.386 130.914 42.11 131.382 41.942C131.862 41.762 132.444 41.654 133.128 41.618L135.324 41.42V40.88C135.324 40.448 135.216 40.148 135 39.98C134.784 39.8 134.466 39.71 134.046 39.71C133.71 39.71 133.32 39.722 132.876 39.746C132.444 39.77 132.012 39.8 131.58 39.836C131.16 39.872 130.794 39.908 130.482 39.944L130.41 38.252C130.722 38.18 131.094 38.108 131.526 38.036C131.97 37.952 132.432 37.886 132.912 37.838C133.392 37.79 133.836 37.766 134.244 37.766C135.012 37.766 135.654 37.862 136.17 38.054C136.686 38.246 137.076 38.564 137.34 39.008C137.604 39.44 137.736 40.028 137.736 40.772V44.894C137.76 45.062 137.85 45.194 138.006 45.29C138.162 45.374 138.342 45.434 138.546 45.47L138.492 47.126C138.204 47.138 137.922 47.144 137.646 47.144C137.37 47.144 137.136 47.126 136.944 47.09C136.668 47.054 136.428 46.982 136.224 46.874C136.032 46.766 135.876 46.652 135.756 46.532C135.564 46.616 135.306 46.712 134.982 46.82C134.658 46.928 134.304 47.018 133.92 47.09C133.548 47.162 133.17 47.198 132.786 47.198ZM133.362 45.416C133.59 45.416 133.83 45.392 134.082 45.344C134.334 45.296 134.568 45.242 134.784 45.182C135.012 45.11 135.192 45.044 135.324 44.984V42.914L133.488 43.076C133.092 43.112 132.804 43.232 132.624 43.436C132.456 43.628 132.372 43.904 132.372 44.264C132.372 44.624 132.45 44.906 132.606 45.11C132.774 45.314 133.026 45.416 133.362 45.416ZM142.063 50.798L143.215 47H141.289L139.147 37.964H141.649L143.251 44.966H143.719L145.321 37.964H147.733L144.619 50.798H142.063Z" fill="white"/>
</g>
<defs>
<filter id="filter0_b_4924_5698" x="52.9082" y="9.18604" width="56.1953" height="17.9678" filterUnits="userSpaceOnUse" color-interpolation-filters="sRGB">
<feFlood flood-opacity="0" result="BackgroundImageFix"/>
<feGaussianBlur in="BackgroundImageFix" stdDeviation="2"/>
<feComposite in2="SourceAlpha" operator="in" result="effect1_backgroundBlur_4924_5698"/>
<feBlend mode="normal" in="SourceGraphic" in2="effect1_backgroundBlur_4924_5698" result="shape"/>
</filter>
<filter id="filter1_b_4924_5698" x="52.7866" y="30.2739" width="98.9468" height="24.8481" filterUnits="userSpaceOnUse" color-interpolation-filters="sRGB">
<feFlood flood-opacity="0" result="BackgroundImageFix"/>
<feGaussianBlur in="BackgroundImageFix" stdDeviation="2"/>
<feComposite in2="SourceAlpha" operator="in" result="effect1_backgroundBlur_4924_5698"/>
<feBlend mode="normal" in="SourceGraphic" in2="effect1_backgroundBlur_4924_5698" result="shape"/>
</filter>
</defs>
</svg>
