<svg width="49" height="66" viewBox="0 0 49 66" fill="none" xmlns="http://www.w3.org/2000/svg">
<mask id="mask0_4664_3491" style="mask-type:alpha" maskUnits="userSpaceOnUse" x="0" y="-1" width="49" height="68">
<mask id="path-1-inside-1_4664_3491" fill="white">
<path fill-rule="evenodd" clip-rule="evenodd" d="M32.6575 0.488415C30.9147 -0.523636 28.7262 0.0869695 27.7695 1.85224L19.4803 17.1466C19.4597 17.1512 19.4391 17.1558 19.4186 17.1604L23.0631 5.64476C23.6531 3.7806 22.6242 1.76786 20.765 1.14917C18.9057 0.530478 16.9202 1.54013 16.3303 3.40429L10.7574 21.0128C10.751 21.0329 10.7448 21.0531 10.7388 21.0732C10.6693 21.1233 10.6 21.1738 10.531 21.2247L11.7057 8.99531C11.8814 7.16547 10.5413 5.53149 8.71244 5.34572C6.88356 5.15995 5.25848 6.49273 5.08272 8.32257L2.96117 30.4103C0.894831 34.7333 0.0894981 39.6151 0.697938 44.4563C1.49653 50.8106 4.66823 56.5978 9.54375 60.5968C14.4193 64.5958 20.6173 66.4938 26.8299 65.8904C33.0425 65.2869 38.7838 62.2291 42.8423 57.3622C46.0022 53.573 47.9496 48.9178 48.4794 44.0237C48.7303 41.7061 46.6927 39.9221 44.366 40.0664C42.0498 40.2101 40.3412 42.2271 39.889 44.5034C39.3624 47.1543 38.1872 49.649 36.4447 51.7386C33.8066 54.9021 30.0748 56.8896 26.0366 57.2819C21.9984 57.6741 17.9697 56.4404 14.8006 53.8411C11.6315 51.2417 9.56991 47.48 9.05082 43.3498C8.53173 39.2195 9.59576 35.0437 12.0184 31.7036C14.441 28.3635 18.0327 26.1202 22.0356 25.4472C26.0385 24.7742 30.1396 25.7241 33.4733 28.0964C35.6563 29.6498 37.3984 31.7335 38.5632 34.1337C39.5868 36.2431 41.7786 37.7797 44.0758 37.3107C46.3405 36.8483 47.844 34.6289 47.0366 32.4631C45.3168 27.8502 42.2761 23.8397 38.271 20.9896C35.1642 18.7788 31.6243 17.371 27.9472 16.8347L34.0809 5.51721C35.0377 3.75193 34.4004 1.50047 32.6575 0.488415Z"/>
</mask>
<path fill-rule="evenodd" clip-rule="evenodd" d="M32.6575 0.488415C30.9147 -0.523636 28.7262 0.0869695 27.7695 1.85224L19.4803 17.1466C19.4597 17.1512 19.4391 17.1558 19.4186 17.1604L23.0631 5.64476C23.6531 3.7806 22.6242 1.76786 20.765 1.14917C18.9057 0.530478 16.9202 1.54013 16.3303 3.40429L10.7574 21.0128C10.751 21.0329 10.7448 21.0531 10.7388 21.0732C10.6693 21.1233 10.6 21.1738 10.531 21.2247L11.7057 8.99531C11.8814 7.16547 10.5413 5.53149 8.71244 5.34572C6.88356 5.15995 5.25848 6.49273 5.08272 8.32257L2.96117 30.4103C0.894831 34.7333 0.0894981 39.6151 0.697938 44.4563C1.49653 50.8106 4.66823 56.5978 9.54375 60.5968C14.4193 64.5958 20.6173 66.4938 26.8299 65.8904C33.0425 65.2869 38.7838 62.2291 42.8423 57.3622C46.0022 53.573 47.9496 48.9178 48.4794 44.0237C48.7303 41.7061 46.6927 39.9221 44.366 40.0664C42.0498 40.2101 40.3412 42.2271 39.889 44.5034C39.3624 47.1543 38.1872 49.649 36.4447 51.7386C33.8066 54.9021 30.0748 56.8896 26.0366 57.2819C21.9984 57.6741 17.9697 56.4404 14.8006 53.8411C11.6315 51.2417 9.56991 47.48 9.05082 43.3498C8.53173 39.2195 9.59576 35.0437 12.0184 31.7036C14.441 28.3635 18.0327 26.1202 22.0356 25.4472C26.0385 24.7742 30.1396 25.7241 33.4733 28.0964C35.6563 29.6498 37.3984 31.7335 38.5632 34.1337C39.5868 36.2431 41.7786 37.7797 44.0758 37.3107C46.3405 36.8483 47.844 34.6289 47.0366 32.4631C45.3168 27.8502 42.2761 23.8397 38.271 20.9896C35.1642 18.7788 31.6243 17.371 27.9472 16.8347L34.0809 5.51721C35.0377 3.75193 34.4004 1.50047 32.6575 0.488415Z" fill="#0B7BFF"/>
<path d="M27.7695 1.85224L26.8903 1.37575V1.37575L27.7695 1.85224ZM19.4803 17.1466L19.6969 18.1229L20.1422 18.0241L20.3595 17.6231L19.4803 17.1466ZM19.4186 17.1604L18.4652 16.8587L17.9402 18.5175L19.6377 18.1361L19.4186 17.1604ZM23.0631 5.64476L24.0165 5.9465L24.0165 5.9465L23.0631 5.64476ZM20.765 1.14917L21.0807 0.200322V0.200322L20.765 1.14917ZM16.3303 3.40429L15.3769 3.10255L16.3303 3.40429ZM10.7574 21.0128L11.7108 21.3145L11.7108 21.3145L10.7574 21.0128ZM10.7388 21.0732L11.3234 21.8845L11.6002 21.6851L11.6974 21.3582L10.7388 21.0732ZM10.531 21.2247L9.53562 21.1291L9.3215 23.3582L11.1243 22.0297L10.531 21.2247ZM11.7057 8.99531L10.7103 8.8997L11.7057 8.99531ZM8.71244 5.34572L8.61138 6.3406H8.61138L8.71244 5.34572ZM5.08272 8.32257L4.0873 8.22696L5.08272 8.32257ZM2.96117 30.4103L3.8634 30.8415L3.93968 30.682L3.95659 30.5059L2.96117 30.4103ZM0.697938 44.4563L-0.294256 44.581L0.697938 44.4563ZM26.8299 65.8904L26.9266 66.8857H26.9266L26.8299 65.8904ZM42.8423 57.3622L42.0743 56.7218L42.8423 57.3622ZM48.4794 44.0237L47.4852 43.9161V43.9161L48.4794 44.0237ZM44.366 40.0664L44.3041 39.0683H44.3041L44.366 40.0664ZM39.889 44.5034L38.9082 44.3085L39.889 44.5034ZM36.4447 51.7386L37.2127 52.379L36.4447 51.7386ZM14.8006 53.8411L14.1664 54.6143L14.8006 53.8411ZM12.0184 31.7036L12.8279 32.2907L12.0184 31.7036ZM22.0356 25.4472L21.8698 24.4611L22.0356 25.4472ZM33.4733 28.0964L34.0531 27.2816L33.4733 28.0964ZM38.5632 34.1337L37.6635 34.5703V34.5703L38.5632 34.1337ZM44.0758 37.3107L44.2758 38.2904H44.2758L44.0758 37.3107ZM47.0366 32.4631L46.0996 32.8124L47.0366 32.4631ZM38.271 20.9896L38.8508 20.1749L38.271 20.9896ZM27.9472 16.8347L27.068 16.3582L26.3855 17.6175L27.8028 17.8242L27.9472 16.8347ZM34.0809 5.51721L33.2017 5.04071V5.04071L34.0809 5.51721ZM28.6487 2.32873C29.335 1.06239 30.8969 0.62241 32.1554 1.35319L33.1597 -0.376359C30.9324 -1.66968 28.1174 -0.888456 26.8903 1.37575L28.6487 2.32873ZM20.3595 17.6231L28.6487 2.32873L26.8903 1.37575L18.6011 16.6702L20.3595 17.6231ZM19.2637 16.1704C19.2422 16.1752 19.2208 16.1799 19.1994 16.1848L19.6377 18.1361C19.6575 18.1317 19.6772 18.1273 19.6969 18.1229L19.2637 16.1704ZM20.3719 17.4622L24.0165 5.9465L22.1097 5.34302L18.4652 16.8587L20.3719 17.4622ZM24.0165 5.9465C24.772 3.55939 23.4566 0.990956 21.0807 0.200322L20.4492 2.09801C21.7917 2.54475 22.5342 4.00181 22.1097 5.34302L24.0165 5.9465ZM21.0807 0.200322C18.6939 -0.593916 16.1359 0.704399 15.3769 3.10255L17.2836 3.70603C17.7046 2.37586 19.1175 1.65487 20.4492 2.09801L21.0807 0.200322ZM15.3769 3.10255L9.80398 20.711L11.7108 21.3145L17.2836 3.70603L15.3769 3.10255ZM9.80398 20.711C9.79583 20.7368 9.78793 20.7625 9.78027 20.7883L11.6974 21.3582C11.7017 21.3436 11.7062 21.3291 11.7108 21.3145L9.80398 20.711ZM10.1542 20.2619C10.0818 20.3141 10.0097 20.3667 9.93779 20.4196L11.1243 22.0297C11.1904 21.9809 11.2568 21.9326 11.3234 21.8845L10.1542 20.2619ZM11.5265 21.3203L12.7011 9.09092L10.7103 8.8997L9.53562 21.1291L11.5265 21.3203ZM12.7011 9.09092C12.9295 6.71344 11.1897 4.59221 8.81349 4.35084L8.61138 6.3406C9.89294 6.47078 10.8334 7.6175 10.7103 8.8997L12.7011 9.09092ZM8.8135 4.35084C6.43305 4.10904 4.31607 5.84522 4.0873 8.22696L6.07814 8.41818C6.20089 7.14024 7.33407 6.21086 8.61138 6.3406L8.8135 4.35084ZM4.0873 8.22696L1.96575 30.3147L3.95659 30.5059L6.07814 8.41818L4.0873 8.22696ZM2.05894 29.979C-0.0898557 34.4745 -0.92664 39.5493 -0.294256 44.581L1.69013 44.3316C1.10564 39.6809 1.87952 34.992 3.8634 30.8415L2.05894 29.979ZM-0.294256 44.581C0.53571 51.1849 3.83268 57.2058 8.90956 61.37L10.1779 59.8236C5.50378 55.9898 2.45736 50.4363 1.69013 44.3316L-0.294256 44.581ZM8.90956 61.37C13.9874 65.5349 20.4475 67.515 26.9266 66.8857L26.7332 64.895C20.787 65.4726 14.8512 63.6567 10.1779 59.8236L8.90956 61.37ZM26.9266 66.8857C33.4053 66.2563 39.3863 63.068 43.6103 58.0027L42.0743 56.7218C38.1813 61.3901 32.6796 64.3174 26.7332 64.895L26.9266 66.8857ZM43.6103 58.0027C46.8988 54.0593 48.9229 49.2179 49.4736 44.1313L47.4852 43.9161C46.9762 48.6177 45.1057 53.0867 42.0743 56.7218L43.6103 58.0027ZM49.4736 44.1313C49.8036 41.0824 47.1281 38.8932 44.3041 39.0683L44.4279 41.0645C46.2572 40.951 47.6569 42.3298 47.4852 43.9161L49.4736 44.1313ZM44.3041 39.0683C41.3951 39.2488 39.4182 41.7409 38.9082 44.3085L40.8699 44.6982C41.2642 42.7133 42.7044 41.1714 44.4279 41.0645L44.3041 39.0683ZM38.9082 44.3085C38.4135 46.7986 37.3101 49.1394 35.6766 51.0982L37.2127 52.379C39.0643 50.1586 40.3113 47.51 40.8699 44.6982L38.9082 44.3085ZM35.6766 51.0982C33.2042 54.0631 29.7119 55.9202 25.9399 56.2866L26.1333 58.2772C30.4376 57.8591 34.4091 55.741 37.2127 52.379L35.6766 51.0982ZM25.9399 56.2866C22.1681 56.6529 18.4016 55.5013 15.4348 53.0679L14.1664 54.6143C17.5378 57.3795 21.8286 58.6953 26.1333 58.2772L25.9399 56.2866ZM15.4348 53.0679C12.4671 50.6337 10.5307 47.1057 10.043 43.2251L8.05862 43.4745C8.60908 47.8543 10.796 51.8497 14.1664 54.6143L15.4348 53.0679ZM10.043 43.2251C9.55527 39.3442 10.5558 35.4234 12.8279 32.2907L11.2089 31.1165C8.63576 34.6641 7.50819 39.0948 8.05862 43.4745L10.043 43.2251ZM12.8279 32.2907C15.0994 29.1589 18.4618 27.0621 22.2014 26.4334L21.8698 24.4611C17.6036 25.1783 13.7826 27.568 11.2089 31.1165L12.8279 32.2907ZM22.2014 26.4334C25.9406 25.8047 29.7738 26.6912 32.8935 28.9112L34.0531 27.2816C30.5053 24.757 26.1365 23.7437 21.8698 24.4611L22.2014 26.4334ZM32.8935 28.9112C34.9368 30.3652 36.5704 32.3177 37.6635 34.5703L39.4629 33.6972C38.2265 31.1493 36.3757 28.9344 34.0531 27.2816L32.8935 28.9112ZM37.6635 34.5703C38.8163 36.9458 41.3906 38.8795 44.2758 38.2904L43.8757 36.3309C42.1666 36.6799 40.3573 35.5403 39.4629 33.6972L37.6635 34.5703ZM44.2758 38.2904C47.0245 37.7292 49.0355 34.962 47.9736 32.1138L46.0996 32.8124C46.6526 34.2958 45.6564 35.9673 43.8757 36.3309L44.2758 38.2904ZM47.9736 32.1138C46.1855 27.3176 43.0224 23.1434 38.8508 20.1749L37.6912 21.8044C41.5299 24.536 44.4481 28.3827 46.0996 32.8124L47.9736 32.1138ZM38.8508 20.1749C35.6147 17.872 31.9255 16.4043 28.0915 15.8451L27.8028 17.8242C31.3231 18.3376 34.7137 19.6856 37.6912 21.8044L38.8508 20.1749ZM33.2017 5.04071L27.068 16.3582L28.8263 17.3112L34.9601 5.9937L33.2017 5.04071ZM32.1554 1.35319C33.4334 2.09536 33.8992 3.75389 33.2017 5.04071L34.9601 5.9937C36.1761 3.74998 35.3673 0.905576 33.1597 -0.376359L32.1554 1.35319Z" fill="url(#paint0_linear_4664_3491)" mask="url(#path-1-inside-1_4664_3491)"/>
</mask>
<g mask="url(#mask0_4664_3491)">
<rect x="-16.9058" y="0.507263" width="107.354" height="93.748" fill="url(#paint1_linear_4664_3491)" stroke="url(#paint2_linear_4664_3491)"/>
</g>
<path d="M21.0841 28.3658H27.6704L25.7132 30.9702L29.1577 51.8051L24.5209 56.7244L19.4902 51.8051L23.0437 30.9702L21.0841 28.3658Z" fill="url(#paint3_linear_4664_3491)"/>
<path d="M23.0437 30.9702L21.0841 28.3658H27.6704L25.7132 30.9702M23.0437 30.9702L25.7132 30.9702M23.0437 30.9702L19.4902 51.8051L24.5209 56.7244L29.1577 51.8051L25.7132 30.9702" stroke="url(#paint4_linear_4664_3491)"/>
<defs>
<linearGradient id="paint0_linear_4664_3491" x1="24.5002" y1="66.0003" x2="24.5002" y2="-0.000244141" gradientUnits="userSpaceOnUse">
<stop stop-color="#5995DD"/>
<stop offset="0.390503" stop-color="#305077"/>
</linearGradient>
<linearGradient id="paint1_linear_4664_3491" x1="36.7714" y1="0.00726285" x2="44.3809" y2="47.3276" gradientUnits="userSpaceOnUse">
<stop stop-color="#0C2E6B"/>
<stop offset="1" stop-color="#4A96F3"/>
</linearGradient>
<linearGradient id="paint2_linear_4664_3491" x1="36.7714" y1="94.7552" x2="36.7714" y2="0.00726318" gradientUnits="userSpaceOnUse">
<stop stop-color="#5995DD"/>
<stop offset="0.390503" stop-color="#305077"/>
</linearGradient>
<linearGradient id="paint3_linear_4664_3491" x1="24.324" y1="28.3658" x2="24.324" y2="56.7244" gradientUnits="userSpaceOnUse">
<stop stop-color="#0F3270"/>
<stop offset="1" stop-color="#4A96F3"/>
</linearGradient>
<linearGradient id="paint4_linear_4664_3491" x1="24.324" y1="56.7244" x2="24.324" y2="28.3658" gradientUnits="userSpaceOnUse">
<stop stop-color="#5995DD"/>
<stop offset="1" stop-color="#305077"/>
</linearGradient>
</defs>
</svg>
