<svg width="51" height="68" viewBox="0 0 51 68" fill="none" xmlns="http://www.w3.org/2000/svg">
<mask id="mask0_4923_5118" style="mask-type:alpha" maskUnits="userSpaceOnUse" x="0" y="0" width="51" height="68">
<path fill-rule="evenodd" clip-rule="evenodd" d="M33.6094 0.490011C31.7878 -0.540278 29.4862 0.107005 28.4686 1.93576L19.8364 17.4491C19.8151 17.4537 19.7939 17.4583 19.7726 17.4629L23.5557 5.82048C24.187 3.87769 23.1234 1.79216 21.1802 1.16233C19.2369 0.532487 17.1498 1.59684 16.5185 3.53963L10.7468 21.3024C10.7314 21.3497 10.717 21.3971 10.7037 21.4446C10.6295 21.4966 10.5556 21.549 10.482 21.6019L11.7012 9.23862C11.8897 7.32703 10.493 5.62407 8.58143 5.43496C6.6699 5.24584 4.96748 6.64218 4.77897 8.55377L2.56965 30.957C0.41196 35.3565 -0.428784 40.3242 0.206884 45.2505C1.04157 51.7193 4.3566 57.6108 9.45246 61.6819C14.5483 65.753 21.0264 67.6852 27.5198 67.0708C34.0132 66.4565 40.014 63.3436 44.2559 58.389C47.5366 54.5571 49.5668 49.8554 50.1364 44.9096C50.4146 42.4947 48.2888 40.6341 45.8624 40.7807C43.436 40.9273 41.6476 43.0442 41.1434 45.4222C40.581 48.0748 39.3625 50.5693 37.5691 52.664C34.8119 55.8845 30.9114 57.9079 26.6907 58.3072C22.47 58.7065 18.2592 57.4506 14.9469 54.8044C11.6346 52.1582 9.4798 48.3287 8.93726 44.124C8.39471 39.9193 9.50682 35.6683 12.0389 32.268C14.571 28.8677 18.3251 26.584 22.5089 25.8988C26.6927 25.2137 30.9791 26.1807 34.4635 28.5958C36.7299 30.1666 38.5417 32.2702 39.759 34.6931C40.8503 36.8652 43.1175 38.4589 45.5016 37.9847C47.8857 37.5106 49.4696 35.1713 48.5876 32.9061C46.7811 28.2669 43.624 24.2345 39.478 21.3609C36.2304 19.11 32.53 17.6767 28.6862 17.1309L35.0653 5.66676C36.0829 3.83801 35.4311 1.5203 33.6094 0.490011Z" fill="#0B7BFF"/>
<path fill-rule="evenodd" clip-rule="evenodd" d="M19.9326 17.5789L19.8675 17.593C19.8464 17.5976 19.8252 17.6022 19.8041 17.6068L19.5532 17.6617L23.4156 5.77496C24.0218 3.90957 23.0006 1.90717 21.1347 1.30243C19.2688 0.697653 17.2648 1.71967 16.6586 3.58514L10.8869 21.3479C10.8721 21.3934 10.8583 21.4389 10.8454 21.4845L10.8312 21.535L10.7883 21.5651C10.7145 21.6168 10.6411 21.669 10.5679 21.7215L10.3035 21.9114L11.5547 9.22417C11.7352 7.39351 10.3975 5.76263 8.56693 5.58152C6.73636 5.40041 5.10606 6.7376 4.92553 8.56823L2.7136 30.9979L2.70188 31.0218C0.556821 35.3956 -0.278996 40.3342 0.352948 45.2317C1.18275 51.6626 4.47837 57.5196 9.54439 61.5668C14.6104 65.6141 21.0506 67.535 27.5059 66.9242C33.9613 66.3134 39.9269 63.2188 44.144 58.2932C47.4055 54.4838 49.4238 49.8096 49.9901 44.8927C50.2557 42.5867 48.2251 40.7855 45.8713 40.9277C43.5325 41.069 41.783 43.1157 41.2875 45.4527C40.72 48.1292 39.4905 50.6462 37.681 52.7598C34.8989 56.0093 30.9633 58.0509 26.7045 58.4538C22.4458 58.8568 18.1971 57.5895 14.855 54.9195C11.5128 52.2494 9.33863 48.3854 8.79119 44.1429C8.24376 39.9003 9.36589 35.611 11.9208 32.18C14.4757 28.7491 18.2636 26.4448 22.4851 25.7535C26.7066 25.0622 31.0316 26.0379 34.5474 28.4747C36.8342 30.0597 38.6623 32.1823 39.8906 34.627C40.9631 36.7617 43.1749 38.2973 45.4729 37.8403C47.7857 37.3803 49.2926 35.1227 48.4504 32.9596C46.6545 28.3475 43.5158 24.3387 39.3941 21.482C36.1655 19.2442 32.4868 17.8193 28.6655 17.2767L28.4533 17.2466L34.9366 5.59515C35.9148 3.83713 35.2881 1.60865 33.5369 0.618204C31.7865 -0.371846 29.5751 0.25004 28.5973 2.00737L19.9326 17.5789ZM35.0653 5.66676C36.0829 3.83801 35.4311 1.5203 33.6094 0.490011C31.7878 -0.540278 29.4862 0.107005 28.4686 1.93576L19.8364 17.4491C19.8151 17.4537 19.7939 17.4583 19.7726 17.4629L23.5557 5.82048C24.187 3.87769 23.1234 1.79216 21.1802 1.16233C19.2369 0.532487 17.1498 1.59684 16.5185 3.53963L10.7468 21.3024C10.7314 21.3497 10.717 21.3971 10.7037 21.4446C10.6828 21.4592 10.662 21.4738 10.6412 21.4885C10.588 21.5261 10.5349 21.5639 10.482 21.6019L11.7012 9.23862C11.8897 7.32703 10.493 5.62407 8.58143 5.43496C6.6699 5.24584 4.96748 6.64218 4.77897 8.55377L2.56965 30.957C0.41196 35.3565 -0.428784 40.3242 0.206884 45.2505C1.04157 51.7193 4.3566 57.6108 9.45246 61.6819C14.5483 65.753 21.0264 67.6852 27.5198 67.0708C34.0132 66.4565 40.014 63.3436 44.2559 58.389C47.5366 54.5571 49.5668 49.8554 50.1364 44.9096C50.4146 42.4947 48.2888 40.6341 45.8624 40.7807C43.436 40.9273 41.6476 43.0442 41.1434 45.4222C40.581 48.0748 39.3625 50.5693 37.5691 52.664C34.8119 55.8845 30.9114 57.9079 26.6907 58.3072C22.47 58.7065 18.2592 57.4506 14.9469 54.8044C11.6346 52.1582 9.4798 48.3287 8.93726 44.124C8.39471 39.9193 9.50682 35.6683 12.0389 32.268C14.571 28.8677 18.3251 26.584 22.5089 25.8988C26.6927 25.2137 30.9791 26.1807 34.4635 28.5958C36.7299 30.1666 38.5417 32.2702 39.759 34.6931C40.8503 36.8652 43.1175 38.4589 45.5016 37.9847C47.8857 37.5106 49.4696 35.1713 48.5876 32.9061C46.7811 28.2669 43.624 24.2345 39.478 21.3609C36.2743 19.1405 32.6301 17.7157 28.8421 17.1535C28.7902 17.1458 28.7382 17.1383 28.6862 17.1309L35.0653 5.66676Z" fill="url(#paint0_linear_4923_5118)"/>
</mask>
<g mask="url(#mask0_4923_5118)">
<path d="M-18.7153 0L94.5358 0V96.4554H-18.7153V0Z" fill="white"/>
<path fill-rule="evenodd" clip-rule="evenodd" d="M94.3885 0.147275L-18.5681 0.147275V96.3081H94.3885V0.147275ZM-18.7153 0V96.4554H94.5358V0L-18.7153 0Z" fill="white"/>
</g>
<path d="M21.5135 28.8696H28.3975L26.3518 31.5209L29.952 52.7313L25.1056 57.7393L19.8477 52.7313L23.5617 31.5209L21.5135 28.8696Z" fill="white"/>
<path fill-rule="evenodd" clip-rule="evenodd" d="M21.3633 28.7959H28.5471L26.4296 31.5403L30.0306 52.7556L25.1075 57.8429L19.7681 52.7573L23.4833 31.5401L21.3633 28.7959ZM23.6233 31.5945L19.9267 52.705L25.1033 57.6355L29.8729 52.7068L26.2894 31.5945L23.6233 31.5945ZM26.3154 31.4472L28.2474 28.9432H21.6632L23.5976 31.4472L26.3154 31.4472Z" fill="url(#paint1_linear_4923_5118)"/>
<defs>
<linearGradient id="paint0_linear_4923_5118" x1="25.0805" y1="67.1827" x2="25.0805" y2="0" gradientUnits="userSpaceOnUse">
<stop stop-color="#5995DD"/>
<stop offset="0.390503" stop-color="#305077"/>
</linearGradient>
<linearGradient id="paint1_linear_4923_5118" x1="24.8996" y1="57.7392" x2="24.8996" y2="28.8695" gradientUnits="userSpaceOnUse">
<stop stop-color="#5995DD"/>
<stop offset="1" stop-color="#305077"/>
</linearGradient>
</defs>
</svg>
